<svg width="173" height="137" viewBox="0 0 173 137" fill="none" xmlns="http://www.w3.org/2000/svg">
<path d="M86 85.7496C86 76.134 80.7784 67.2768 72.365 62.6211L60.1565 55.8654C51.7432 51.2097 46.5216 42.3525 46.5216 32.7369V0H0V18.5271C0 28.3146 5.40812 37.301 14.0564 41.8838L25.4221 47.9067C34.0703 52.4896 39.4784 61.4759 39.4784 71.2634V137H86V85.7496Z" fill="black"/>
<path d="M173 121.106C173 111.395 167.675 102.465 159.13 97.8492L146.43 90.9886C137.886 86.3728 132.561 77.4433 132.561 67.7318V0H86V52.921C86 62.6325 91.3253 71.5619 99.8697 76.1778L112.57 83.0384C121.114 87.6543 126.439 96.5838 126.439 106.295V137H173V121.106Z" fill="black"/>
</svg>
